<svg
    width="24"
    height="24"
    viewBox="0 0 24 24"
    fill="none"
    xmlns="http://www.w3.org/2000/svg"
  >
    <path
      fillRule="evenodd"
      clipRule="evenodd"
      d="M0 12C0 17.9333 4.33333 22.8667 10 23.8667L10.0669 23.8132C10.0446 23.8088 10.0223 23.8045 10 23.8V15.3333H7V12H10V9.33333C10 6.33333 11.9333 4.66667 14.6667 4.66667C15.5333 4.66667 16.4667 4.8 17.3333 4.93333V8H15.8C14.3333 8 14 8.73333 14 9.66667V12H17.2L16.6667 15.3333H14V23.8C13.9777 23.8045 13.9554 23.8088 13.9331 23.8132L14 23.8667C19.6667 22.8667 24 17.9333 24 12C24 5.4 18.6 0 12 0C5.4 0 0 5.4 0 12Z"
      fill="#171A1C"
    />
  </svg>
