<svg style="display:none">
<symbol id="Bell" xmlns="http://www.w3.org/2000/svg" viewBox="0 0 256 256"><rect width="256" height="256" fill="none"></rect><path d="M56.2,104a71.9,71.9,0,0,1,72.3-72c39.6.3,71.3,33.2,71.3,72.9V112c0,35.8,7.5,56.6,14.1,68a8,8,0,0,1-6.9,12H49a8,8,0,0,1-6.9-12c6.6-11.4,14.1-32.2,14.1-68Z" fill="none" stroke="currentColor" stroke-linecap="round" stroke-linejoin="round"></path><path d="M96,192v8a32,32,0,0,0,64,0v-8" fill="none" stroke="currentColor" stroke-linecap="round" stroke-linejoin="round"></path></symbol>
<symbol id="BellRinging" xmlns="http://www.w3.org/2000/svg" fill="currentColor" viewBox="0 0 256 256"><rect width="256" height="256" fill="none"></rect><path d="M56.20305,112a71.80121,71.80121,0,1,1,143.60186,0h0c0,35.81563,7.49325,56.59893,14.093,67.95814A7.999,7.999,0,0,1,207.01628,192H48.98365A7.99908,7.99908,0,0,1,42.103,179.95641c6.60328-11.35959,14.1-32.1426,14.1-67.95641Z" fill="none" stroke="currentColor" stroke-linecap="round" stroke-linejoin="round"></path><path d="M96,192v8a32,32,0,0,0,64,0v-8" fill="none" stroke="currentColor" stroke-linecap="round" stroke-linejoin="round"></path><path d="M183.43247,23.98832a104.46641,104.46641,0,0,1,37.91845,42.1156" fill="none" stroke="currentColor" stroke-linecap="round" stroke-linejoin="round"></path><path d="M34.64909,66.10391A104.46639,104.46639,0,0,1,72.56757,23.98829" fill="none" stroke="currentColor" stroke-linecap="round" stroke-linejoin="round"></path></symbol>
<symbol id="X" xmlns="http://www.w3.org/2000/svg" fill="currentColor" viewBox="0 0 256 256"><rect width="256" height="256" fill="none"></rect><line x1="200" y1="56" x2="56" y2="200" fill="none" stroke="currentColor" stroke-linecap="round" stroke-linejoin="round"></line><line x1="200" y1="200" x2="56" y2="56" fill="none" stroke="currentColor" stroke-linecap="round" stroke-linejoin="round"></line></symbol>
<symbol id="XCircle" xmlns="http://www.w3.org/2000/svg" fill="currentColor" viewBox="0 0 256 256"><rect width="256" height="256" fill="none"></rect><circle cx="128" cy="128" r="96" fill="none" stroke="currentColor" stroke-miterlimit="10"></circle><line x1="160" y1="96" x2="96" y2="160" fill="none" stroke="currentColor" stroke-linecap="round" stroke-linejoin="round"></line><line x1="160" y1="160" x2="96" y2="96" fill="none" stroke="currentColor" stroke-linecap="round" stroke-linejoin="round"></line></symbol>
<symbol id="List" xmlns="http://www.w3.org/2000/svg" fill="currentColor" viewBox="0 0 256 256"><rect width="256" height="256" fill="none"></rect><line x1="40" y1="128" x2="216" y2="128" stroke="currentColor" stroke-linecap="round" stroke-linejoin="round"></line><line x1="40" y1="64" x2="216" y2="64" stroke="currentColor" stroke-linecap="round" stroke-linejoin="round"></line><line x1="40" y1="192" x2="216" y2="192" stroke="currentColor" stroke-linecap="round" stroke-linejoin="round"></line></symbol>
<symbol id="MagnifyingGlass" xmlns="http://www.w3.org/2000/svg" fill="currentColor" viewBox="0 0 256 256" data-testid="store-input-mobile-button"><rect width="256" height="256" fill="none"></rect><circle cx="116" cy="116" r="84" fill="none" stroke="currentColor" stroke-linecap="round" stroke-linejoin="round"></circle><line x1="175.39356" y1="175.40039" x2="223.99414" y2="224.00098" fill="none" stroke="currentColor" stroke-linecap="round" stroke-linejoin="round"></line></symbol>
<symbol id="User" xmlns="http://www.w3.org/2000/svg" fill="currentColor" viewBox="0 0 256 256"><rect width="256" height="256" fill="none"></rect><circle cx="128" cy="96" r="64" fill="none" stroke="currentColor" stroke-linecap="round" stroke-linejoin="round"></circle><path d="M30.989,215.99064a112.03731,112.03731,0,0,1,194.02311.002" fill="none" stroke="currentColor" stroke-linecap="round" stroke-linejoin="round"></path></symbol>
<symbol id="ShoppingCart" xmlns="http://www.w3.org/2000/svg" fill="currentColor" viewBox="0 0 256 256"><rect width="256" height="256" fill="none"></rect><path d="M184,184H69.81818L41.92162,30.56892A8,8,0,0,0,34.05066,24H16" fill="none" stroke="currentColor" stroke-linecap="round" stroke-linejoin="round"></path><circle cx="80" cy="204" r="20" fill="none" stroke="currentColor" stroke-linecap="round" stroke-linejoin="round"></circle><circle cx="184" cy="204" r="20" fill="none" stroke="currentColor" stroke-linecap="round" stroke-linejoin="round"></circle><path d="M62.54543,144H188.10132a16,16,0,0,0,15.74192-13.13783L216,64H48" fill="none" stroke="currentColor" stroke-linecap="round" stroke-linejoin="round"></path></symbol>
<symbol id="ArrowRight" xmlns="http://www.w3.org/2000/svg" fill="currentColor" viewBox="0 0 256 256"><rect width="256" height="256" fill="none"></rect><line x1="40" y1="128" x2="216" y2="128" fill="none" stroke="currentColor" stroke-linecap="round" stroke-linejoin="round"></line><polyline points="144 56 216 128 144 200" fill="none" stroke="currentColor" stroke-linecap="round" stroke-linejoin="round"></polyline></symbol>
<symbol id="ArrowLeft" xmlns="http://www.w3.org/2000/svg" fill="currentColor" viewBox="0 0 256 256"><rect width="256" height="256" fill="none"></rect><line x1="216" y1="128" x2="40" y2="128" fill="none" stroke="currentColor" stroke-linecap="round" stroke-linejoin="round"></line><polyline points="112 56 40 128 112 200" fill="none" stroke="currentColor" stroke-linecap="round" stroke-linejoin="round"></polyline></symbol>
<symbol id="ArrowUpRight"  xmlns="http://www.w3.org/2000/svg" width="256" height="256" viewBox="0 0 256 256" fill="none"><path d="M13,0.25H3.25C2.83579,0.25,2.5,0.585786,2.5,1C2.5,1.41421,2.83579,1.75,3.25,1.75H11.1893L0.46967,12.4697C0.176777,12.7626,0.176777,13.2374,0.46967,13.5303C0.762563,13.8232,1.23744,13.8232,1.53033,13.5303L12.25,2.81066V10.75C12.25,11.1642,12.5858,11.5,13,11.5C13.4142,11.5,13.75,11.1642,13.75,10.75V1C13.75,0.793702,13.6667,0.606858,13.5319,0.471263C13.5314,0.470731,13.5309,0.4702,13.5303,0.46967C13.5298,0.46914,13.5293,0.46861,13.5287,0.468082C13.4572,0.396963,13.3749,0.343239,13.2871,0.306909C13.1987,0.270239,13.1017,0.25,13,0.25Z" fill="black"/></symbol>
<symbol id="Truck" xmlns="http://www.w3.org/2000/svg" fill="currentColor" viewBox="0 0 256 256"><rect width="256" height="256" fill="none"></rect><path d="M240,120H176V80h42.58374a8,8,0,0,1,7.42781,5.02887Z" fill="none" stroke="currentColor" stroke-linecap="round" stroke-linejoin="round"></path><line x1="16" y1="144" x2="176" y2="144" fill="none" stroke="currentColor" stroke-linecap="round" stroke-linejoin="round"></line><circle cx="188" cy="192" r="24" fill="none" stroke="currentColor" stroke-miterlimit="10"></circle><circle cx="68" cy="192" r="24" fill="none" stroke="currentColor" stroke-miterlimit="10"></circle><line x1="164" y1="192" x2="92" y2="192" fill="none" stroke="currentColor" stroke-linecap="round" stroke-linejoin="round"></line><path d="M44,192H24a8,8,0,0,1-8-8V72a8,8,0,0,1,8-8H176V171.21508" fill="none" stroke="currentColor" stroke-linecap="round" stroke-linejoin="round"></path><path d="M176,171.21508V120h64v64a8,8,0,0,1-8,8H212" fill="none" stroke="currentColor" stroke-linecap="round" stroke-linejoin="round"></path></symbol>
<symbol id="Calendar" xmlns="http://www.w3.org/2000/svg" fill="currentColor" viewBox="0 0 256 256"><rect width="256" height="256" fill="none"></rect><rect x="40" y="40" width="176" height="176" rx="8"  stroke="currentColor" stroke-linecap="round" stroke-linejoin="round" fill="none"></rect><line x1="176" y1="24" x2="176" y2="56" fill="none" stroke="currentColor" stroke-linecap="round" stroke-linejoin="round"></line><line x1="80" y1="24" x2="80" y2="56" fill="none" stroke="currentColor" stroke-linecap="round" stroke-linejoin="round"></line><line x1="40" y1="88" x2="216" y2="88" fill="none" stroke="currentColor" stroke-linecap="round" stroke-linejoin="round"></line><path d="M92,127.99666h28l-16,20a16,16,0,1,1-11.30681,27.3206" fill="none" stroke="currentColor" stroke-linecap="round" stroke-linejoin="round"></path><polyline points="144 139.997 160 127.997 160 179.997" fill="none" stroke="currentColor" stroke-linecap="round" stroke-linejoin="round"></polyline></symbol>
<symbol id="Gift" xmlns="http://www.w3.org/2000/svg" fill="currentColor" viewBox="0 0 256 256"><rect width="256" height="256" fill="none"></rect><rect x="32" y="80" width="192" height="48" rx="7.99999" stroke="currentColor" stroke-linecap="round" stroke-linejoin="round" fill="none"></rect><path d="M208,128v72a8,8,0,0,1-8,8H56a8,8,0,0,1-8-8V128" fill="none" stroke="currentColor" stroke-linecap="round" stroke-linejoin="round"></path><line x1="128" y1="80" x2="128" y2="208" fill="none" stroke="currentColor" stroke-linecap="round" stroke-linejoin="round"></line><path d="M173.25483,68.68629C161.94113,80,128,80,128,80s0-33.94113,11.31371-45.25483a24,24,0,0,1,33.94112,33.94112Z" fill="none" stroke="currentColor" stroke-linecap="round" stroke-linejoin="round"></path><path d="M82.74517,68.68629C94.05887,80,128,80,128,80s0-33.94113-11.31371-45.25483A24,24,0,0,0,82.74517,68.68629Z" fill="none" stroke="currentColor" stroke-linecap="round" stroke-linejoin="round"></path></symbol>
<symbol id="Storefront" xmlns="http://www.w3.org/2000/svg" fill="currentColor" viewBox="0 0 256 256"><rect width="256" height="256" fill="none"></rect><path d="M48,139.58816V208a8,8,0,0,0,8,8H200a8,8,0,0,0,8-8V139.58972" fill="none" stroke="currentColor" stroke-linecap="round" stroke-linejoin="round"></path><path d="M54.03441,40H201.96559a8,8,0,0,1,7.69219,5.80223L224,96H32L46.34222,45.80223A8,8,0,0,1,54.03441,40Z" fill="none" stroke="currentColor" stroke-linecap="round" stroke-linejoin="round"></path><path d="M96,96v16a32,32,0,0,1-64,0V96" fill="none" stroke="currentColor" stroke-linecap="round" stroke-linejoin="round"></path><path d="M160,96v16a32,32,0,0,1-64,0V96" fill="none" stroke="currentColor" stroke-linecap="round" stroke-linejoin="round"></path><path d="M224,96v16a32,32,0,0,1-64,0V96" fill="none" stroke="currentColor" stroke-linecap="round" stroke-linejoin="round"></path></symbol>
<symbol id="ShieldCheck" xmlns="http://www.w3.org/2000/svg" fill="currentColor" viewBox="0 0 256 256"><rect width="256" height="256" fill="none"></rect><path d="M40,114.66667V56a8,8,0,0,1,8-8H208a8,8,0,0,1,8,8v58.66667c0,84.01533-71.306,111.85016-85.5438,116.57058a7.54755,7.54755,0,0,1-4.9124,0C111.306,226.51683,40,198.682,40,114.66667Z" fill="none" stroke="currentColor" stroke-linecap="round" stroke-linejoin="round"></path><polyline points="172 104 113.333 160 84 132" fill="none" stroke="currentColor" stroke-linecap="round" stroke-linejoin="round"></polyline></symbol>
<symbol id="Medal" xmlns="http://www.w3.org/2000/svg" fill="currentColor" viewBox="0 0 256 256"><rect width="256" height="256" fill="none"></rect><circle cx="127.99414" cy="96" r="80" fill="none" stroke="currentColor" stroke-linecap="round" stroke-linejoin="round"></circle><circle cx="127.99414" cy="96" r="48" fill="none" stroke="currentColor" stroke-linecap="round" stroke-linejoin="round"></circle><polyline points="176 159.995 176 240 127.993 216 80 240 80 160.002" fill="none" stroke="currentColor" stroke-linecap="round" stroke-linejoin="round"></polyline></symbol>
<symbol id="CircleWavyCheck" xmlns="http://www.w3.org/2000/svg" fill="currentColor" viewBox="0 0 256 256"><rect width="256" height="256" fill="none"></rect><path d="M54.46089,201.53911c-9.204-9.204-3.09935-28.52745-7.78412-39.85C41.82037,149.95168,24,140.50492,24,127.99963,24,115.4945,41.82047,106.048,46.67683,94.31079c4.68477-11.32253-1.41993-30.6459,7.78406-39.8499s28.52746-3.09935,39.85-7.78412C106.04832,41.82037,115.49508,24,128.00037,24c12.50513,0,21.95163,17.82047,33.68884,22.67683,11.32253,4.68477,30.6459-1.41993,39.8499,7.78406s3.09935,28.52746,7.78412,39.85C214.17963,106.04832,232,115.49508,232,128.00037c0,12.50513-17.82047,21.95163-22.67683,33.68884-4.68477,11.32253,1.41993,30.6459-7.78406,39.8499s-28.52745,3.09935-39.85,7.78412C149.95168,214.17963,140.50492,232,127.99963,232c-12.50513,0-21.95163-17.82047-33.68884-22.67683C82.98826,204.6384,63.66489,210.7431,54.46089,201.53911Z" fill="none" stroke="currentColor" stroke-linecap="round" stroke-linejoin="round"></path><polyline points="172 104 113.333 160 84 132" fill="none" stroke="currentColor" stroke-linecap="round" stroke-linejoin="round"></polyline></symbol>
<symbol id="CircleWavyWarning" xmlns="http://www.w3.org/2000/svg" fill="currentColor" viewBox="0 0 256 256"><rect width="256" height="256" fill="none"></rect><path d="M54.46089,201.53911c-9.204-9.204-3.09935-28.52745-7.78412-39.85C41.82037,149.95168,24,140.50492,24,127.99963,24,115.4945,41.82047,106.048,46.67683,94.31079c4.68477-11.32253-1.41993-30.6459,7.78406-39.8499s28.52746-3.09935,39.85-7.78412C106.04832,41.82037,115.49508,24,128.00037,24c12.50513,0,21.95163,17.82047,33.68884,22.67683,11.32253,4.68477,30.6459-1.41993,39.8499,7.78406s3.09935,28.52746,7.78412,39.85C214.17963,106.04832,232,115.49508,232,128.00037c0,12.50513-17.82047,21.95163-22.67683,33.68884-4.68477,11.32253,1.41993,30.6459-7.78406,39.8499s-28.52745,3.09935-39.85,7.78412C149.95168,214.17963,140.50492,232,127.99963,232c-12.50513,0-21.95163-17.82047-33.68884-22.67683C82.98826,204.6384,63.66489,210.7431,54.46089,201.53911Z" fill="none" stroke="currentColor" stroke-linecap="round" stroke-linejoin="round"></path><line x1="127.99951" y1="80" x2="127.99951" y2="136" fill="none" stroke="currentColor" stroke-linecap="round" stroke-linejoin="round"></line><circle cx="127.99951" cy="172" r="8"></circle></symbol>
<symbol id="CaretUp" xmlns="http://www.w3.org/2000/svg" fill="currentColor" viewBox="0 0 256 256"><rect width="256" height="256" fill="none"></rect><polyline points="48 160 128 80 208 160" fill="none" stroke="currentColor" stroke-linecap="round" stroke-linejoin="round"></polyline></symbol>
<symbol id="CaretDown" xmlns="http://www.w3.org/2000/svg" fill="currentColor" viewBox="0 0 256 256"><rect width="256" height="256" fill="none"></rect><polyline points="208 96 128 176 48 96" fill="none" stroke="currentColor" stroke-linecap="round" stroke-linejoin="round"></polyline></symbol>
<symbol id="CaretLeft" xmlns="http://www.w3.org/2000/svg" fill="currentColor" viewBox="0 0 256 256"><rect width="256" height="256" fill="none"></rect><polyline points="160 208 80 128 160 48" fill="none" stroke="currentColor" stroke-linecap="round" stroke-linejoin="round"></polyline></symbol>
<symbol id="PlusCircle" xmlns="http://www.w3.org/2000/svg" fill="currentColor" viewBox="0 0 256 256"><rect width="256" height="256" fill="none"></rect><circle cx="128" cy="128" r="96" fill="none" stroke="currentColor" stroke-miterlimit="10"></circle><line x1="88" y1="128" x2="168" y2="128" fill="none" stroke="currentColor" stroke-linecap="round" stroke-linejoin="round"></line><line x1="128" y1="88" x2="128" y2="168" fill="none" stroke="currentColor" stroke-linecap="round" stroke-linejoin="round"></line></symbol>
<symbol id="MinusCircle" xmlns="http://www.w3.org/2000/svg" fill="currentColor" viewBox="0 0 256 256"><rect width="256" height="256" fill="none"></rect><circle cx="128" cy="128" r="96" fill="none" stroke="currentColor" stroke-miterlimit="10"></circle><line x1="88" y1="128" x2="168" y2="128" fill="none" stroke="currentColor" stroke-linecap="round" stroke-linejoin="round"></line></symbol>
<symbol id="Minus" xmlns="http://www.w3.org/2000/svg" fill="currentColor" viewBox="0 0 256 256"><rect width="256" height="256" fill="none"></rect><line x1="40" y1="128" x2="216" y2="128" fill="none" stroke="currentColor" stroke-linecap="round" stroke-linejoin="round"></line></symbol>
<symbol id="Plus" xmlns="http://www.w3.org/2000/svg" fill="currentColor" viewBox="0 0 256 256"><rect width="256" height="256" fill="none"></rect><line x1="40" y1="128" x2="216" y2="128" fill="none" stroke="currentColor" stroke-linecap="round" stroke-linejoin="round"></line><line x1="128" y1="40" x2="128" y2="216" fill="none" stroke="currentColor" stroke-linecap="round" stroke-linejoin="round"></line></symbol>
<symbol id="House" xmlns="http://www.w3.org/2000/svg" fill="currentColor" viewBox="0 0 256 256"><rect width="256" height="256" fill="none"></rect><path d="M151.99414,207.99263v-48.001a8,8,0,0,0-8-8h-32a8,8,0,0,0-8,8v48.001a8,8,0,0,1-7.999,8l-47.99414.00632a8,8,0,0,1-8.001-8v-92.4604a8,8,0,0,1,2.61811-5.91906l79.9945-72.73477a8,8,0,0,1,10.76339-.00036l80.0055,72.73509A8,8,0,0,1,216,115.53887V207.999a8,8,0,0,1-8.001,8l-48.00586-.00632A8,8,0,0,1,151.99414,207.99263Z" fill="none" stroke="currentColor" stroke-linecap="round" stroke-linejoin="round"></path></symbol>
<symbol id="RocketLaunch" xmlns="http://www.w3.org/2000/svg" fill="currentColor" viewBox="0 0 256 256"><rect width="256" height="256" fill="none"></rect><path d="M195.88225,105.37258,128,173.25483,82.74517,128l67.88225-67.88225c25.70415-25.70415,51.40829-25.45342,62.37042-23.81787a7.96343,7.96343,0,0,1,6.70228,6.70228C221.33567,53.96429,221.5864,79.66843,195.88225,105.37258Z" fill="none" stroke="currentColor" stroke-linecap="round" stroke-linejoin="round"></path><path d="M184.56854,116.68629v64.56854a8,8,0,0,1-2.34314,5.65686l-32.34176,32.34176a8,8,0,0,1-13.5015-4.08793L128,173.25483" fill="none" stroke="currentColor" stroke-linecap="round" stroke-linejoin="round"></path><path d="M139.31371,71.43146H74.74517a8,8,0,0,0-5.65686,2.34314L36.74655,106.11636a8,8,0,0,0,4.08793,13.5015L82.74517,128" fill="none" stroke="currentColor" stroke-linecap="round" stroke-linejoin="round"></path><path d="M90.56048,192.38144c-15.05815,26.12823-53.07015,26.12823-53.07015,26.12823s0-38.012,26.12827-53.07018" fill="none" stroke="currentColor" stroke-linecap="round" stroke-linejoin="round"></path></symbol>
<symbol id="FadersHorizontal" xmlns="http://www.w3.org/2000/svg" fill="currentColor" viewBox="0 0 256 256"><rect width="256" height="256" fill="none"></rect><line x1="135.99902" y1="171.99304" x2="39.99902" y2="171.99317" fill="none" stroke="currentColor" stroke-linecap="round" stroke-linejoin="round"></line><line x1="215.99902" y1="171.99317" x2="167.99902" y2="171.99304" fill="none" stroke="currentColor" stroke-linecap="round" stroke-linejoin="round"></line><line x1="71.99902" y1="83.99304" x2="39.99902" y2="83.99246" fill="none" stroke="currentColor" stroke-linecap="round" stroke-linejoin="round"></line><line x1="215.99902" y1="83.99246" x2="103.99902" y2="83.99304" fill="none" stroke="currentColor" stroke-linecap="round" stroke-linejoin="round"></line><line x1="103.99902" y1="59.99304" x2="103.99902" y2="107.99304" fill="none" stroke="currentColor" stroke-linecap="round" stroke-linejoin="round"></line><line x1="167.99902" y1="195.99304" x2="167.99902" y2="147.99304" fill="none" stroke="currentColor" stroke-linecap="round" stroke-linejoin="round"></line></symbol>
<symbol id="Headphones" xmlns="http://www.w3.org/2000/svg" fill="currentColor" viewBox="0 0 256 256"><rect width="256" height="256" fill="none"></rect><path d="M225.45581,136h-32a16,16,0,0,0-16,16v40a16,16,0,0,0,16,16h16a16,16,0,0,0,16-16V136A96.0001,96.0001,0,0,0,128.7279,40.0027,96.00009,96.00009,0,0,0,32,136v56a16,16,0,0,0,16,16H64a16,16,0,0,0,16-16V152a16,16,0,0,0-16-16H32" fill="none" stroke="currentColor" stroke-linecap="round" stroke-linejoin="round"></path></symbol>
<symbol id="Clock" xmlns="http://www.w3.org/2000/svg" viewBox="0 0 256 256" width="256" height="256" fill="none"><path d="M6.91916,3.97641C7.91273,3.56486,9.00603,3.45718,10.0608,3.66698C11.1156,3.87679,12.0844,4.39466,12.8449,5.15511L13.9511,6.26129H12.9492C12.535,6.26129,12.1992,6.59708,12.1992,7.01129C12.1992,7.42551,12.535,7.76129,12.9492,7.76129H15.7617C15.8772,7.76129,15.9866,7.73519,16.0843,7.68857C16.1402,7.66196,16.1934,7.62805,16.2426,7.58682C16.2764,7.55855,16.3077,7.52735,16.3361,7.49362C16.3799,7.44159,16.4155,7.38501,16.4429,7.32558C16.4871,7.22999,16.5117,7.12352,16.5117,7.01129V4.19879C16.5117,3.78458,16.1759,3.44879,15.7617,3.44879C15.3475,3.44879,15.0117,3.78458,15.0117,4.19879V5.20062L13.9056,4.09445C12.9353,3.12422,11.6992,2.46349,10.3534,2.19581C9.0077,1.92812,7.6128,2.06551,6.34513,2.59059C5.07747,3.11567,3.99398,4.00487,3.23168,5.14573C2.46938,6.2866,2.0625,7.6279,2.0625,9C2.0625,10.3721,2.46938,11.7134,3.23168,12.8543C3.99398,13.9951,5.07747,14.8843,6.34513,15.4094C7.6128,15.9345,9.0077,16.0719,10.3534,15.8042C11.6992,15.5365,12.9353,14.8758,13.9056,13.9056C14.1984,13.6127,14.1984,13.1378,13.9056,12.8449C13.6127,12.552,13.1378,12.552,12.8449,12.8449C12.0844,13.6053,11.1156,14.1232,10.0608,14.333C9.00603,14.5428,7.91273,14.4351,6.91916,14.0236C5.92559,13.612,5.07636,12.9151,4.47888,12.0209C3.8814,11.1267,3.5625,10.0754,3.5625,9C3.5625,7.92457,3.8814,6.87328,4.47888,5.97909C5.07636,5.0849,5.92559,4.38796,6.91916,3.97641ZM9.75,5.625C9.75,5.21079,9.41421,4.875,9,4.875C8.58579,4.875,8.25,5.21079,8.25,5.625V8.9856C8.24945,9.01549,8.2507,9.04532,8.25369,9.07491C8.26446,9.18344,8.29835,9.28517,8.35039,9.37509C8.40224,9.46508,8.47337,9.54528,8.56195,9.60885C8.58609,9.62624,8.6113,9.64224,8.63747,9.65672L11.5478,11.337C11.9066,11.5441,12.3652,11.4212,12.5724,11.0625C12.7795,10.7038,12.6566,10.2451,12.2978,10.038L9.75,8.56699V5.625Z" fill="currentColor"/></symbol>
</svg>
