<svg
width="24"
height="24"
viewBox="0 0 24 24"
fill="none"
xmlns="http://www.w3.org/2000/svg"
>
<path
  d="M12.0005 0.363647C8.84036 0.363647 8.44377 0.377466 7.20259 0.433951C5.96384 0.490678 5.11829 0.686799 4.37843 0.974557C3.61312 1.27177 2.96393 1.66934 2.31716 2.31637C1.66991 2.96316 1.27235 3.61237 0.974173 4.37746C0.685697 5.11759 0.48934 5.9634 0.433584 7.20171C0.37807 8.44292 0.363525 8.83977 0.363525 12C0.363525 15.1603 0.377586 15.5556 0.433827 16.7969C0.490794 18.0356 0.68691 18.8812 0.974416 19.6211C1.27186 20.3864 1.66943 21.0356 2.31644 21.6824C2.96296 22.3297 3.61215 22.7283 4.37698 23.0255C5.11732 23.3132 5.96311 23.5093 7.20162 23.5661C8.4428 23.6226 8.83915 23.6364 11.9991 23.6364C15.1594 23.6364 15.5548 23.6226 16.796 23.5661C18.0347 23.5093 18.8813 23.3132 19.6216 23.0255C20.3867 22.7283 21.0349 22.3297 21.6814 21.6824C22.3287 21.0356 22.7262 20.3864 23.0244 19.6213C23.3105 18.8812 23.5068 18.0354 23.565 16.7971C23.6208 15.5559 23.6353 15.1603 23.6353 12C23.6353 8.83977 23.6208 8.44316 23.565 7.20195C23.5068 5.96316 23.3105 5.11759 23.0244 4.37771C22.7262 3.61237 22.3287 2.96316 21.6814 2.31637C21.0342 1.6691 20.3869 1.27153 19.6209 0.974557C18.8791 0.686799 18.0331 0.490678 16.7943 0.433951C15.5531 0.377466 15.158 0.363647 11.9969 0.363647H12.0005ZM10.9567 2.46062C11.2665 2.46013 11.6122 2.46062 12.0005 2.46062C15.1073 2.46062 15.4756 2.47177 16.7024 2.52753C17.8369 2.5794 18.4527 2.76898 18.8628 2.92825C19.4059 3.13916 19.793 3.39128 20.2 3.79856C20.6073 4.20583 20.8594 4.59371 21.0708 5.13674C21.23 5.54643 21.4199 6.16219 21.4715 7.29674C21.5272 8.5234 21.5394 8.89189 21.5394 11.9973C21.5394 15.1028 21.5272 15.4713 21.4715 16.6979C21.4196 17.8325 21.23 18.4483 21.0708 18.8579C20.8599 19.401 20.6073 19.7876 20.2 20.1947C19.7928 20.6019 19.4061 20.8541 18.8628 21.065C18.4532 21.225 17.8369 21.4141 16.7024 21.4659C15.4758 21.5217 15.1073 21.5338 12.0005 21.5338C8.89345 21.5338 8.52522 21.5217 7.29859 21.4659C6.16408 21.4136 5.54834 21.224 5.13793 21.0647C4.59491 20.8538 4.20705 20.6017 3.79978 20.1944C3.39252 19.7872 3.14041 19.4003 2.92902 18.857C2.76976 18.4473 2.57994 17.8315 2.52831 16.697C2.47255 15.4703 2.4614 15.1018 2.4614 11.9944C2.4614 8.88704 2.47255 8.5205 2.52831 7.29383C2.58019 6.15928 2.76976 5.54353 2.92902 5.13334C3.13993 4.59031 3.39252 4.20243 3.79978 3.79516C4.20705 3.38789 4.59491 3.13577 5.13793 2.92437C5.5481 2.76437 6.16408 2.57528 7.29859 2.52316C8.37201 2.47468 8.788 2.46013 10.9567 2.45771V2.46062ZM18.2117 4.39274C17.4408 4.39274 16.8154 5.01746 16.8154 5.78862C16.8154 6.55953 17.4408 7.18498 18.2117 7.18498C18.9826 7.18498 19.608 6.55953 19.608 5.78862C19.608 5.01771 18.9826 4.39225 18.2117 4.39225V4.39274ZM12.0005 6.02425C8.70048 6.02425 6.02493 8.69989 6.02493 12C6.02493 15.3001 8.70048 17.9746 12.0005 17.9746C15.3005 17.9746 17.9751 15.3001 17.9751 12C17.9751 8.69989 15.3003 6.02425 12.0003 6.02425H12.0005ZM12.0005 8.12122C14.1425 8.12122 15.8792 9.85771 15.8792 12C15.8792 14.1421 14.1425 15.8788 12.0005 15.8788C9.85827 15.8788 8.12184 14.1421 8.12184 12C8.12184 9.85771 9.85827 8.12122 12.0005 8.12122Z"
  fill="#171A1C"
/>
</svg>
