<svg
    width="24"
    height="24"
    viewBox="0 0 24 24"
    fill="none"
    xmlns="http://www.w3.org/2000/svg"
  >
    <path
      d="M13.6372 0.111996C10.7664 -0.282916 7.84967 0.374216 5.42555 1.96205C3.00144 3.54988 1.23369 5.96118 0.448715 8.75069C-0.336255 11.5402 -0.0854291 14.5195 1.15488 17.1385C2.39519 19.7575 4.54121 21.8393 7.19668 22.9995C7.12486 22.0779 7.19078 21.1506 7.39224 20.2484C7.61421 19.2417 8.9472 13.6938 8.9472 13.6938C8.68176 13.0988 8.54911 12.4532 8.55846 11.8017C8.55846 10.02 9.58669 8.69062 10.8657 8.69062C11.0955 8.68728 11.3233 8.73345 11.5336 8.826C11.7439 8.91855 11.9319 9.0553 12.0846 9.22696C12.2374 9.39863 12.3514 9.60117 12.4189 9.82083C12.4864 10.0405 12.5058 10.2721 12.4758 10.4999C12.4758 11.5798 11.7823 13.2139 11.42 14.7473C11.3484 15.0285 11.3438 15.3226 11.4067 15.6059C11.4696 15.8891 11.5982 16.1537 11.7821 16.3782C11.9659 16.6027 12.2 16.7809 12.4653 16.8983C12.7307 17.0158 13.0199 17.0693 13.3097 17.0545C15.5869 17.0545 17.1131 14.1378 17.1131 10.6943C17.1131 8.05472 15.365 6.07744 12.1423 6.07744C11.3713 6.04748 10.6022 6.17453 9.88176 6.45089C9.16134 6.72724 8.5046 7.14712 7.95141 7.68505C7.39823 8.22297 6.96014 8.86772 6.66375 9.58013C6.36736 10.2925 6.21884 11.0578 6.22723 11.8293C6.19288 12.6852 6.469 13.5246 7.00471 14.1929C7.10481 14.2677 7.1779 14.3729 7.21296 14.4928C7.24802 14.6127 7.24315 14.7408 7.19907 14.8576C7.14388 15.0784 7.00471 15.6051 6.94951 15.7983C6.93803 15.8638 6.91133 15.9257 6.87155 15.979C6.83178 16.0323 6.78004 16.0755 6.72051 16.1052C6.66098 16.1348 6.59531 16.1501 6.52881 16.1497C6.4623 16.1493 6.39681 16.1333 6.33761 16.103C4.67708 15.4383 3.8948 13.611 3.8948 11.5246C3.8948 8.10872 6.75515 4.01977 12.4782 4.01977C17.0327 4.01977 20.061 7.35164 20.061 10.9151C20.061 15.6051 17.449 19.1314 13.5893 19.1314C13.0124 19.1498 12.4402 19.0225 11.9255 18.7612C11.4109 18.4999 10.9704 18.113 10.6449 17.6364C10.6449 17.6364 9.95143 20.4151 9.81466 20.9407C9.53545 21.8486 9.12346 22.7101 8.59205 23.4975C9.69947 23.8334 10.8501 24.0014 12.0067 23.9966C13.5827 23.9978 15.1436 23.6882 16.5998 23.0854C18.056 22.4826 19.379 21.5985 20.493 20.4837C21.6071 19.3688 22.4903 18.0452 23.092 16.5886C23.6938 15.132 24.0024 13.5709 24 11.9949C23.9985 9.09735 22.9487 6.2982 21.0444 4.11429C19.1401 1.93038 16.51 0.509209 13.6396 0.113195L13.6372 0.111996Z"
      fill="#171A1C"
    />
</svg>
