<svg
    width="25"
    height="22"
    viewBox="0 0 25 22"
    fill="none"
    xmlns="http://www.w3.org/2000/svg"
  >
    <path
      fillRule="evenodd"
      clipRule="evenodd"
      d="M22.3622 5.78508C22.3713 6.01826 22.3743 6.25134 22.3743 6.48452C22.3743 13.5541 17.4012 21.7156 8.30706 21.7156C5.51351 21.7156 2.91591 20.8252 0.727295 19.3095C1.11417 19.3519 1.50708 19.3838 1.90602 19.3838C4.22225 19.3838 6.3556 18.5251 8.04781 17.0836C5.88432 17.0518 4.05746 15.4938 3.4274 13.3739C3.72987 13.4375 4.04136 13.4694 4.35991 13.4694C4.80909 13.4694 5.2452 13.4059 5.66323 13.2787C3.39924 12.7912 1.69399 10.629 1.69399 8.03221C1.69399 8.00041 1.69399 7.98975 1.69399 7.96855C2.36123 8.36072 3.12492 8.60438 3.93585 8.63617C2.60741 7.67165 1.73416 6.02884 1.73416 4.17399C1.73416 3.19887 1.97734 2.27671 2.40542 1.48178C4.84324 4.7251 8.48795 6.85555 12.5969 7.07814C12.5125 6.68597 12.4693 6.27271 12.4693 5.85934C12.4693 2.90219 14.683 0.506744 17.4142 0.506744C18.8361 0.506744 20.1204 1.15338 21.0217 2.19209C22.1502 1.95891 23.2073 1.51378 24.164 0.899035C23.7932 2.14973 23.0104 3.19882 21.9874 3.85597C22.9883 3.72878 23.9429 3.44282 24.8282 3.01886C24.164 4.08937 23.3279 5.03254 22.3622 5.78508Z"
      fill="#171A1C"
    />
  </svg>
